<svg version="1.1" xmlns="http://www.w3.org/2000/svg" xmlns:xlink="http://www.w3.org/1999/xlink" width="681" height="1747"><desc>Client-%3EService%3ARegister%20user%0AService-%3EService%3AGenerate%20user's%20salt%0AService-%3EService%3AStore%20user's%20salt%0AService--%3EClient%3A%20Confirm%20user%20creation%0A%0AClient-%3EService%3ALogin%0AService-%3EService%3A%20Authenticate%20user%0AService-%3EService%3A%20Retrieve%20user's%20salt%0AService-%3EService%3A%20Derive%20user's%20encryption%20key%20from%20password%20and%20salt%0AService-%3EService%3A%20Create%20JWT%20token%0AService-%3EService%3A%20Encrypt%20JWT%20token%20and%20create%20JWE%20token%0AClient%3C--Service%3A%20JWE%20token%0A%0AClient-%3EService%3A%20Create%20wallet%20given%20JWE%20token%0AService-%3EService%3A%20Decrypt%20JWE%20token%0AService-%3EService%3A%20Verify%20JWT%20token%0AService-%3EService%3A%20Retrieve%20user's%20encryption%20key%20from%20the%20JWT%20token%0AService-%3EService%3A%20Generate%20mnemonic%0AService-%3EService%3A%20Encrypt%20mnemonic%20with%20user's%20encryption%20key%0AService-%3EService%3A%20Store%20user's%20wallet%20with%20encrypted%20mnemonic%0AService--%3EClient%3A%20Confirm%20wallet%20creation%0A%0AClient-%3EService%3A%20Generate%20address%20given%20JWE%20token%0AService-%3EService%3A%20Decrypt%20JWE%20token%0AService-%3EService%3A%20Verify%20JWT%20token%0AService-%3EService%3A%20Retrieve%20user's%20encryption%20key%20from%20the%20JWT%20token%0AService-%3EService%3A%20Retrieve%20user's%20wallet%0AService-%3EService%3A%20Decrypt%20mnemonic%20with%20user's%20encryption%20key%0AService-%3EService%3A%20Derive%20wallet%20master%20private%20key%20from%20mnemonic%0AService-%3EService%3A%20Derive%20new%20private%20key%0AService-%3EService%3A%20Derive%20address%0AService--%3EClient%3A%20Return%20address</desc><defs/><g><g/><g/><g/><g/><g/><g/><g/><g/><g/><g/><g/><g/><g/><g/><g/><g/><g/><g/><g/><g/><g/><g/><g/><g/><g/><g/><g/><g/><g/><g><rect fill="white" stroke="none" x="0" y="0" width="681" height="1747"/></g><g/><g><path fill="none" stroke="black" paint-order="fill stroke markers" d=" M 42.63504106207812 50.815047804 L 42.63504106207812 1747.1630828040004" stroke-miterlimit="10" stroke-width="1.2565541" stroke-dasharray="11.598960923076923,5.0262164"/><path fill="none" stroke="black" paint-order="fill stroke markers" d=" M 314.2102812952812 50.815047804 L 314.2102812952812 1747.1630828040004" stroke-miterlimit="10" stroke-width="1.2565541" stroke-dasharray="11.598960923076923,5.0262164"/></g><g><path fill="none" stroke="none"/><g><path fill="white" stroke="black" paint-order="fill stroke markers" d=" M 7.5393246000000005 10.102694964000001 L 77.73075752415625 10.102694964000001 L 77.73075752415625 50.815047804 L 7.5393246000000005 50.815047804 L 7.5393246000000005 10.102694964000001 Z" stroke-miterlimit="10" stroke-width="2.4125838720000004" stroke-dasharray=""/></g><g><g/><text fill="black" stroke="none" font-family="sans-serif" font-size="11pt" font-style="normal" font-weight="normal" text-decoration="normal" x="23.899658982" y="35.736398604" text-anchor="start" dominant-baseline="alphabetic" xml:space="preserve">Client</text></g><path fill="none" stroke="none"/><g><path fill="white" stroke="black" paint-order="fill stroke markers" d=" M 273.41451447919917 10.102694964000001 L 355.0060481113632 10.102694964000001 L 355.0060481113632 50.815047804 L 273.41451447919917 50.815047804 L 273.41451447919917 10.102694964000001 Z" stroke-miterlimit="10" stroke-width="2.4125838720000004" stroke-dasharray=""/></g><g><g/><text fill="black" stroke="none" font-family="sans-serif" font-size="11pt" font-style="normal" font-weight="normal" text-decoration="normal" x="289.7748488611992" y="35.736398604" text-anchor="start" dominant-baseline="alphabetic" xml:space="preserve">Service</text></g></g><g><g><g><rect fill="white" stroke="none" x="132.58213607651172" y="80.97234620399999" width="91.68105020433593" height="19.602243960000003"/></g><text fill="black" stroke="none" font-family="sans-serif" font-size="11pt" font-style="normal" font-weight="normal" text-decoration="normal" x="134.8439334565117" y="94.54313048399999" text-anchor="start" dominant-baseline="alphabetic" xml:space="preserve">Register user</text></g><g><path fill="none" stroke="black" paint-order="fill stroke markers" d=" M 42.63504106207812 100.574590164 L 301.79552678728123 100.574590164" stroke-miterlimit="10" stroke-width="1.2565541" stroke-dasharray=""/><g transform="translate(314.2102812952812,100.574590164) translate(-314.2102812952812,-100.574590164)"><path fill="black" stroke="none" paint-order="stroke fill markers" d=" M 301.6447402952812 94.291819664 L 314.2102812952812 100.574590164 L 301.6447402952812 106.857360664 Z"/></g></g><g><g><rect fill="white" stroke="none" x="332.0533495152812" y="123.192563964" width="135.2204178801172" height="19.602243960000003"/></g><text fill="black" stroke="none" font-family="sans-serif" font-size="11pt" font-style="normal" font-weight="normal" text-decoration="normal" x="334.3151468952812" y="136.76334824399999" text-anchor="start" dominant-baseline="alphabetic" xml:space="preserve">Generate user's salt</text></g><g><path fill="none" stroke="black" paint-order="fill stroke markers" d=" M 314.2102812952812 142.794807924 L 374.5248780952812 142.794807924 L 374.5248780952812 162.397051884 L 326.6250358032812 162.397051884" stroke-miterlimit="10" stroke-width="1.2565541" stroke-dasharray=""/><g transform="translate(314.2102812952812,162.397051884) translate(-314.2102812952812,-162.397051884)"><path fill="black" stroke="none" paint-order="stroke fill markers" d=" M 326.7758222952812 156.114281384 L 314.2102812952812 162.397051884 L 326.7758222952812 168.679822384 Z"/></g></g><g><g><rect fill="white" stroke="none" x="332.0533495152812" y="185.01502568400002" width="109.14259805589843" height="19.602243960000003"/></g><text fill="black" stroke="none" font-family="sans-serif" font-size="11pt" font-style="normal" font-weight="normal" text-decoration="normal" x="334.3151468952812" y="198.58580996400002" text-anchor="start" dominant-baseline="alphabetic" xml:space="preserve">Store user's salt</text></g><g><path fill="none" stroke="black" paint-order="fill stroke markers" d=" M 314.2102812952812 204.617269644 L 374.5248780952812 204.617269644 L 374.5248780952812 224.219513604 L 326.6250358032812 224.219513604" stroke-miterlimit="10" stroke-width="1.2565541" stroke-dasharray=""/><g transform="translate(314.2102812952812,224.219513604) translate(-314.2102812952812,-224.219513604)"><path fill="black" stroke="none" paint-order="stroke fill markers" d=" M 326.7758222952812 217.93674310400002 L 314.2102812952812 224.219513604 L 326.7758222952812 230.502284104 Z"/></g></g><g><g><rect fill="white" stroke="none" x="106.11071578842576" y="246.837487404" width="144.62389078050782" height="19.602243960000003"/></g><text fill="black" stroke="none" font-family="sans-serif" font-size="11pt" font-style="normal" font-weight="normal" text-decoration="normal" x="108.37251316842577" y="260.408271684" text-anchor="start" dominant-baseline="alphabetic" xml:space="preserve">Confirm user creation</text></g><g><path fill="none" stroke="black" paint-order="fill stroke markers" d=" M 314.2102812952812 266.439731364 L 55.049795570078125 266.439731364" stroke-miterlimit="10" stroke-width="1.2565541" stroke-dasharray="6.03145968"/><g transform="translate(42.63504106207812,266.439731364) translate(-42.63504106207812,-266.439731364)"><path fill="black" stroke="none" paint-order="stroke fill markers" d=" M 55.20058206207813 260.156960864 L 42.63504106207812 266.439731364 L 55.20058206207813 272.72250186400004 Z"/></g></g><g><g><rect fill="white" stroke="none" x="158.23057357651172" y="289.057705164" width="40.38417520433594" height="19.602243960000003"/></g><text fill="black" stroke="none" font-family="sans-serif" font-size="11pt" font-style="normal" font-weight="normal" text-decoration="normal" x="160.4923709565117" y="302.628489444" text-anchor="start" dominant-baseline="alphabetic" xml:space="preserve">Login</text></g><g><path fill="none" stroke="black" paint-order="fill stroke markers" d=" M 42.63504106207812 308.65994912400004 L 301.79552678728123 308.65994912400004" stroke-miterlimit="10" stroke-width="1.2565541" stroke-dasharray=""/><g transform="translate(314.2102812952812,308.65994912400004) translate(-314.2102812952812,-308.65994912400004)"><path fill="black" stroke="none" paint-order="stroke fill markers" d=" M 301.6447402952812 302.377178624 L 314.2102812952812 308.65994912400004 L 301.6447402952812 314.94271962400006 Z"/></g></g><g><g><rect fill="white" stroke="none" x="332.0533495152812" y="331.277922924" width="118.58900918871093" height="19.602243960000003"/></g><text fill="black" stroke="none" font-family="sans-serif" font-size="11pt" font-style="normal" font-weight="normal" text-decoration="normal" x="334.3151468952812" y="344.848707204" text-anchor="start" dominant-baseline="alphabetic" xml:space="preserve">Authenticate user</text></g><g><path fill="none" stroke="black" paint-order="fill stroke markers" d=" M 314.2102812952812 350.880166884 L 374.5248780952812 350.880166884 L 374.5248780952812 370.482410844 L 326.6250358032812 370.482410844" stroke-miterlimit="10" stroke-width="1.2565541" stroke-dasharray=""/><g transform="translate(314.2102812952812,370.482410844) translate(-314.2102812952812,-370.482410844)"><path fill="black" stroke="none" paint-order="stroke fill markers" d=" M 326.7758222952812 364.199640344 L 314.2102812952812 370.482410844 L 326.7758222952812 376.76518134400004 Z"/></g></g><g><g><rect fill="white" stroke="none" x="332.0533495152812" y="393.100384644" width="128.68665017992188" height="19.602243960000003"/></g><text fill="black" stroke="none" font-family="sans-serif" font-size="11pt" font-style="normal" font-weight="normal" text-decoration="normal" x="334.3151468952812" y="406.67116892399997" text-anchor="start" dominant-baseline="alphabetic" xml:space="preserve">Retrieve user's salt</text></g><g><path fill="none" stroke="black" paint-order="fill stroke markers" d=" M 314.2102812952812 412.702628604 L 374.5248780952812 412.702628604 L 374.5248780952812 432.304872564 L 326.6250358032812 432.304872564" stroke-miterlimit="10" stroke-width="1.2565541" stroke-dasharray=""/><g transform="translate(314.2102812952812,432.304872564) translate(-314.2102812952812,-432.304872564)"><path fill="black" stroke="none" paint-order="stroke fill markers" d=" M 326.7758222952812 426.02210206399997 L 314.2102812952812 432.304872564 L 326.7758222952812 438.587643064 Z"/></g></g><g><g><rect fill="white" stroke="none" x="332.0533495152812" y="454.92284636399995" width="343.74277200609373" height="19.602243960000003"/></g><text fill="black" stroke="none" font-family="sans-serif" font-size="11pt" font-style="normal" font-weight="normal" text-decoration="normal" x="334.3151468952812" y="468.49363064399995" text-anchor="start" dominant-baseline="alphabetic" xml:space="preserve">Derive user's encryption key from password and salt</text></g><g><path fill="none" stroke="black" paint-order="fill stroke markers" d=" M 314.2102812952812 474.52509032399996 L 374.5248780952812 474.52509032399996 L 374.5248780952812 494.12733428399997 L 326.6250358032812 494.12733428399997" stroke-miterlimit="10" stroke-width="1.2565541" stroke-dasharray=""/><g transform="translate(314.2102812952812,494.12733428399997) translate(-314.2102812952812,-494.12733428399997)"><path fill="black" stroke="none" paint-order="stroke fill markers" d=" M 326.7758222952812 487.84456378399994 L 314.2102812952812 494.12733428399997 L 326.7758222952812 500.410104784 Z"/></g></g><g><g><rect fill="white" stroke="none" x="332.0533495152812" y="516.7453080839999" width="122.62520303636718" height="19.602243960000003"/></g><text fill="black" stroke="none" font-family="sans-serif" font-size="11pt" font-style="normal" font-weight="normal" text-decoration="normal" x="334.3151468952812" y="530.3160923639999" text-anchor="start" dominant-baseline="alphabetic" xml:space="preserve">Create JWT token</text></g><g><path fill="none" stroke="black" paint-order="fill stroke markers" d=" M 314.2102812952812 536.3475520439999 L 374.5248780952812 536.3475520439999 L 374.5248780952812 555.949796004 L 326.6250358032812 555.949796004" stroke-miterlimit="10" stroke-width="1.2565541" stroke-dasharray=""/><g transform="translate(314.2102812952812,555.949796004) translate(-314.2102812952812,-555.949796004)"><path fill="black" stroke="none" paint-order="stroke fill markers" d=" M 326.7758222952812 549.667025504 L 314.2102812952812 555.949796004 L 326.7758222952812 562.2325665039999 Z"/></g></g><g><g><rect fill="white" stroke="none" x="332.0533495152812" y="578.5677698039999" width="276.58737649828123" height="19.602243960000003"/></g><text fill="black" stroke="none" font-family="sans-serif" font-size="11pt" font-style="normal" font-weight="normal" text-decoration="normal" x="334.3151468952812" y="592.1385540839999" text-anchor="start" dominant-baseline="alphabetic" xml:space="preserve">Encrypt JWT token and create JWE token</text></g><g><path fill="none" stroke="black" paint-order="fill stroke markers" d=" M 314.2102812952812 598.1700137639999 L 374.5248780952812 598.1700137639999 L 374.5248780952812 617.7722577239999 L 326.6250358032812 617.7722577239999" stroke-miterlimit="10" stroke-width="1.2565541" stroke-dasharray=""/><g transform="translate(314.2102812952812,617.7722577239999) translate(-314.2102812952812,-617.7722577239999)"><path fill="black" stroke="none" paint-order="stroke fill markers" d=" M 326.7758222952812 611.489487224 L 314.2102812952812 617.7722577239999 L 326.7758222952812 624.0550282239999 Z"/></g></g><g><g><rect fill="white" stroke="none" x="140.7296656785625" y="640.3902315239999" width="75.38599100023437" height="19.602243960000003"/></g><text fill="black" stroke="none" font-family="sans-serif" font-size="11pt" font-style="normal" font-weight="normal" text-decoration="normal" x="142.9914630585625" y="653.9610158039999" text-anchor="start" dominant-baseline="alphabetic" xml:space="preserve">JWE token</text></g><g><path fill="none" stroke="black" paint-order="fill stroke markers" d=" M 314.2102812952812 659.9924754839999 L 55.049795570078125 659.9924754839999" stroke-miterlimit="10" stroke-width="1.2565541" stroke-dasharray="6.03145968"/><g transform="translate(42.63504106207812,659.9924754839999) translate(-42.63504106207812,-659.9924754839999)"><path fill="black" stroke="none" paint-order="stroke fill markers" d=" M 55.20058206207813 653.7097049839999 L 42.63504106207812 659.9924754839999 L 55.20058206207813 666.2752459839999 Z"/></g></g><g><g><rect fill="white" stroke="none" x="76.37241165024217" y="682.6104492839999" width="204.100499056875" height="19.602243960000003"/></g><text fill="black" stroke="none" font-family="sans-serif" font-size="11pt" font-style="normal" font-weight="normal" text-decoration="normal" x="78.63420903024218" y="696.1812335639999" text-anchor="start" dominant-baseline="alphabetic" xml:space="preserve">Create wallet given JWE token</text></g><g><path fill="none" stroke="black" paint-order="fill stroke markers" d=" M 42.63504106207812 702.2126932439999 L 301.79552678728123 702.2126932439999" stroke-miterlimit="10" stroke-width="1.2565541" stroke-dasharray=""/><g transform="translate(314.2102812952812,702.2126932439999) translate(-314.2102812952812,-702.2126932439999)"><path fill="black" stroke="none" paint-order="stroke fill markers" d=" M 301.6447402952812 695.9299227439999 L 314.2102812952812 702.2126932439999 L 301.6447402952812 708.4954637439998 Z"/></g></g><g><g><rect fill="white" stroke="none" x="332.0533495152812" y="724.8306670439998" width="129.9533280363672" height="19.602243960000003"/></g><text fill="black" stroke="none" font-family="sans-serif" font-size="11pt" font-style="normal" font-weight="normal" text-decoration="normal" x="334.3151468952812" y="738.4014513239998" text-anchor="start" dominant-baseline="alphabetic" xml:space="preserve">Decrypt JWE token</text></g><g><path fill="none" stroke="black" paint-order="fill stroke markers" d=" M 314.2102812952812 744.4329110039998 L 374.5248780952812 744.4329110039998 L 374.5248780952812 764.0351549639998 L 326.6250358032812 764.0351549639998" stroke-miterlimit="10" stroke-width="1.2565541" stroke-dasharray=""/><g transform="translate(314.2102812952812,764.0351549639998) translate(-314.2102812952812,-764.0351549639998)"><path fill="black" stroke="none" paint-order="stroke fill markers" d=" M 326.7758222952812 757.7523844639999 L 314.2102812952812 764.0351549639998 L 326.7758222952812 770.3179254639998 Z"/></g></g><g><g><rect fill="white" stroke="none" x="332.0533495152812" y="786.6531287639998" width="115.28970804125" height="19.602243960000003"/></g><text fill="black" stroke="none" font-family="sans-serif" font-size="11pt" font-style="normal" font-weight="normal" text-decoration="normal" x="334.3151468952812" y="800.2239130439998" text-anchor="start" dominant-baseline="alphabetic" xml:space="preserve">Verify JWT token</text></g><g><path fill="none" stroke="black" paint-order="fill stroke markers" d=" M 314.2102812952812 806.2553727239998 L 374.5248780952812 806.2553727239998 L 374.5248780952812 825.8576166839998 L 326.6250358032812 825.8576166839998" stroke-miterlimit="10" stroke-width="1.2565541" stroke-dasharray=""/><g transform="translate(314.2102812952812,825.8576166839998) translate(-314.2102812952812,-825.8576166839998)"><path fill="black" stroke="none" paint-order="stroke fill markers" d=" M 326.7758222952812 819.5748461839999 L 314.2102812952812 825.8576166839998 L 326.7758222952812 832.1403871839998 Z"/></g></g><g><g><rect fill="white" stroke="none" x="332.0533495152812" y="848.4755904839998" width="332.3212326994531" height="19.602243960000003"/></g><text fill="black" stroke="none" font-family="sans-serif" font-size="11pt" font-style="normal" font-weight="normal" text-decoration="normal" x="334.3151468952812" y="862.0463747639998" text-anchor="start" dominant-baseline="alphabetic" xml:space="preserve">Retrieve user's encryption key from the JWT token</text></g><g><path fill="none" stroke="black" paint-order="fill stroke markers" d=" M 314.2102812952812 868.0778344439998 L 374.5248780952812 868.0778344439998 L 374.5248780952812 887.6800784039998 L 326.6250358032812 887.6800784039998" stroke-miterlimit="10" stroke-width="1.2565541" stroke-dasharray=""/><g transform="translate(314.2102812952812,887.6800784039998) translate(-314.2102812952812,-887.6800784039998)"><path fill="black" stroke="none" paint-order="stroke fill markers" d=" M 326.7758222952812 881.3973079039998 L 314.2102812952812 887.6800784039998 L 326.7758222952812 893.9628489039998 Z"/></g></g><g><g><rect fill="white" stroke="none" x="332.0533495152812" y="910.2980522039998" width="137.31007852464845" height="19.602243960000003"/></g><text fill="black" stroke="none" font-family="sans-serif" font-size="11pt" font-style="normal" font-weight="normal" text-decoration="normal" x="334.3151468952812" y="923.8688364839998" text-anchor="start" dominant-baseline="alphabetic" xml:space="preserve">Generate mnemonic</text></g><g><path fill="none" stroke="black" paint-order="fill stroke markers" d=" M 314.2102812952812 929.9002961639998 L 374.5248780952812 929.9002961639998 L 374.5248780952812 949.5025401239998 L 326.6250358032812 949.5025401239998" stroke-miterlimit="10" stroke-width="1.2565541" stroke-dasharray=""/><g transform="translate(314.2102812952812,949.5025401239998) translate(-314.2102812952812,-949.5025401239998)"><path fill="black" stroke="none" paint-order="stroke fill markers" d=" M 326.7758222952812 943.2197696239998 L 314.2102812952812 949.5025401239998 L 326.7758222952812 955.7853106239997 Z"/></g></g><g><g><rect fill="white" stroke="none" x="332.0533495152812" y="972.1205139239997" width="297.305088900625" height="19.602243960000003"/></g><text fill="black" stroke="none" font-family="sans-serif" font-size="11pt" font-style="normal" font-weight="normal" text-decoration="normal" x="334.3151468952812" y="985.6912982039997" text-anchor="start" dominant-baseline="alphabetic" xml:space="preserve">Encrypt mnemonic with user's encryption key</text></g><g><path fill="none" stroke="black" paint-order="fill stroke markers" d=" M 314.2102812952812 991.7227578839997 L 374.5248780952812 991.7227578839997 L 374.5248780952812 1011.3250018439998 L 326.6250358032812 1011.3250018439998" stroke-miterlimit="10" stroke-width="1.2565541" stroke-dasharray=""/><g transform="translate(314.2102812952812,1011.3250018439998) translate(-314.2102812952812,-1011.3250018439998)"><path fill="black" stroke="none" paint-order="stroke fill markers" d=" M 326.7758222952812 1005.0422313439998 L 314.2102812952812 1011.3250018439998 L 326.7758222952812 1017.6077723439997 Z"/></g></g><g><g><rect fill="white" stroke="none" x="332.0533495152812" y="1033.9429756439997" width="294.0560959807031" height="19.602243960000003"/></g><text fill="black" stroke="none" font-family="sans-serif" font-size="11pt" font-style="normal" font-weight="normal" text-decoration="normal" x="334.3151468952812" y="1047.5137599239997" text-anchor="start" dominant-baseline="alphabetic" xml:space="preserve">Store user's wallet with encrypted mnemonic</text></g><g><path fill="none" stroke="black" paint-order="fill stroke markers" d=" M 314.2102812952812 1053.5452196039998 L 374.5248780952812 1053.5452196039998 L 374.5248780952812 1073.1474635639997 L 326.6250358032812 1073.1474635639997" stroke-miterlimit="10" stroke-width="1.2565541" stroke-dasharray=""/><g transform="translate(314.2102812952812,1073.1474635639997) translate(-314.2102812952812,-1073.1474635639997)"><path fill="black" stroke="none" paint-order="stroke fill markers" d=" M 326.7758222952812 1066.8646930639998 L 314.2102812952812 1073.1474635639997 L 326.7758222952812 1079.4302340639997 Z"/></g></g><g><g><rect fill="white" stroke="none" x="101.63082687241014" y="1095.7654373639998" width="153.58366861253907" height="19.602243960000003"/></g><text fill="black" stroke="none" font-family="sans-serif" font-size="11pt" font-style="normal" font-weight="normal" text-decoration="normal" x="103.89262425241014" y="1109.3362216439998" text-anchor="start" dominant-baseline="alphabetic" xml:space="preserve">Confirm wallet creation</text></g><g><path fill="none" stroke="black" paint-order="fill stroke markers" d=" M 314.2102812952812 1115.3676813239997 L 55.049795570078125 1115.3676813239997" stroke-miterlimit="10" stroke-width="1.2565541" stroke-dasharray="6.03145968"/><g transform="translate(42.63504106207812,1115.3676813239997) translate(-42.63504106207812,-1115.3676813239997)"><path fill="black" stroke="none" paint-order="stroke fill markers" d=" M 55.20058206207813 1109.0849108239997 L 42.63504106207812 1115.3676813239997 L 55.20058206207813 1121.6504518239997 Z"/></g></g><g><g><rect fill="white" stroke="none" x="60.478109282078115" y="1137.9856551239998" width="235.88910379320313" height="19.602243960000003"/></g><text fill="black" stroke="none" font-family="sans-serif" font-size="11pt" font-style="normal" font-weight="normal" text-decoration="normal" x="62.73990666207811" y="1151.5564394039998" text-anchor="start" dominant-baseline="alphabetic" xml:space="preserve">Generate address given JWE token</text></g><g><path fill="none" stroke="black" paint-order="fill stroke markers" d=" M 42.63504106207812 1157.5878990839997 L 301.79552678728123 1157.5878990839997" stroke-miterlimit="10" stroke-width="1.2565541" stroke-dasharray=""/><g transform="translate(314.2102812952812,1157.5878990839997) translate(-314.2102812952812,-1157.5878990839997)"><path fill="black" stroke="none" paint-order="stroke fill markers" d=" M 301.6447402952812 1151.3051285839997 L 314.2102812952812 1157.5878990839997 L 301.6447402952812 1163.8706695839996 Z"/></g></g><g><g><rect fill="white" stroke="none" x="332.0533495152812" y="1180.2058728839997" width="129.9533280363672" height="19.602243960000003"/></g><text fill="black" stroke="none" font-family="sans-serif" font-size="11pt" font-style="normal" font-weight="normal" text-decoration="normal" x="334.3151468952812" y="1193.7766571639997" text-anchor="start" dominant-baseline="alphabetic" xml:space="preserve">Decrypt JWE token</text></g><g><path fill="none" stroke="black" paint-order="fill stroke markers" d=" M 314.2102812952812 1199.8081168439999 L 374.5248780952812 1199.8081168439999 L 374.5248780952812 1219.4103608039998 L 326.6250358032812 1219.4103608039998" stroke-miterlimit="10" stroke-width="1.2565541" stroke-dasharray=""/><g transform="translate(314.2102812952812,1219.4103608039998) translate(-314.2102812952812,-1219.4103608039998)"><path fill="black" stroke="none" paint-order="stroke fill markers" d=" M 326.7758222952812 1213.1275903039998 L 314.2102812952812 1219.4103608039998 L 326.7758222952812 1225.6931313039997 Z"/></g></g><g><g><rect fill="white" stroke="none" x="332.0533495152812" y="1242.0283346039998" width="115.28970804125" height="19.602243960000003"/></g><text fill="black" stroke="none" font-family="sans-serif" font-size="11pt" font-style="normal" font-weight="normal" text-decoration="normal" x="334.3151468952812" y="1255.5991188839998" text-anchor="start" dominant-baseline="alphabetic" xml:space="preserve">Verify JWT token</text></g><g><path fill="none" stroke="black" paint-order="fill stroke markers" d=" M 314.2102812952812 1261.630578564 L 374.5248780952812 1261.630578564 L 374.5248780952812 1281.2328225239999 L 326.6250358032812 1281.2328225239999" stroke-miterlimit="10" stroke-width="1.2565541" stroke-dasharray=""/><g transform="translate(314.2102812952812,1281.2328225239999) translate(-314.2102812952812,-1281.2328225239999)"><path fill="black" stroke="none" paint-order="stroke fill markers" d=" M 326.7758222952812 1274.950052024 L 314.2102812952812 1281.2328225239999 L 326.7758222952812 1287.5155930239998 Z"/></g></g><g><g><rect fill="white" stroke="none" x="332.0533495152812" y="1303.850796324" width="332.3212326994531" height="19.602243960000003"/></g><text fill="black" stroke="none" font-family="sans-serif" font-size="11pt" font-style="normal" font-weight="normal" text-decoration="normal" x="334.3151468952812" y="1317.421580604" text-anchor="start" dominant-baseline="alphabetic" xml:space="preserve">Retrieve user's encryption key from the JWT token</text></g><g><path fill="none" stroke="black" paint-order="fill stroke markers" d=" M 314.2102812952812 1323.453040284 L 374.5248780952812 1323.453040284 L 374.5248780952812 1343.055284244 L 326.6250358032812 1343.055284244" stroke-miterlimit="10" stroke-width="1.2565541" stroke-dasharray=""/><g transform="translate(314.2102812952812,1343.055284244) translate(-314.2102812952812,-1343.055284244)"><path fill="black" stroke="none" paint-order="stroke fill markers" d=" M 326.7758222952812 1336.772513744 L 314.2102812952812 1343.055284244 L 326.7758222952812 1349.338054744 Z"/></g></g><g><g><rect fill="white" stroke="none" x="332.0533495152812" y="1365.673258044" width="143.3500565519922" height="19.602243960000003"/></g><text fill="black" stroke="none" font-family="sans-serif" font-size="11pt" font-style="normal" font-weight="normal" text-decoration="normal" x="334.3151468952812" y="1379.244042324" text-anchor="start" dominant-baseline="alphabetic" xml:space="preserve">Retrieve user's wallet</text></g><g><path fill="none" stroke="black" paint-order="fill stroke markers" d=" M 314.2102812952812 1385.2755020040001 L 374.5248780952812 1385.2755020040001 L 374.5248780952812 1404.877745964 L 326.6250358032812 1404.877745964" stroke-miterlimit="10" stroke-width="1.2565541" stroke-dasharray=""/><g transform="translate(314.2102812952812,1404.877745964) translate(-314.2102812952812,-1404.877745964)"><path fill="black" stroke="none" paint-order="stroke fill markers" d=" M 326.7758222952812 1398.594975464 L 314.2102812952812 1404.877745964 L 326.7758222952812 1411.160516464 Z"/></g></g><g><g><rect fill="white" stroke="none" x="332.0533495152812" y="1427.4957197640001" width="298.11374368578123" height="19.602243960000003"/></g><text fill="black" stroke="none" font-family="sans-serif" font-size="11pt" font-style="normal" font-weight="normal" text-decoration="normal" x="334.3151468952812" y="1441.066504044" text-anchor="start" dominant-baseline="alphabetic" xml:space="preserve">Decrypt mnemonic with user's encryption key</text></g><g><path fill="none" stroke="black" paint-order="fill stroke markers" d=" M 314.2102812952812 1447.0979637240002 L 374.5248780952812 1447.0979637240002 L 374.5248780952812 1466.7002076840001 L 326.6250358032812 1466.7002076840001" stroke-miterlimit="10" stroke-width="1.2565541" stroke-dasharray=""/><g transform="translate(314.2102812952812,1466.7002076840001) translate(-314.2102812952812,-1466.7002076840001)"><path fill="black" stroke="none" paint-order="stroke fill markers" d=" M 326.7758222952812 1460.4174371840002 L 314.2102812952812 1466.7002076840001 L 326.7758222952812 1472.982978184 Z"/></g></g><g><g><rect fill="white" stroke="none" x="332.0533495152812" y="1489.3181814840002" width="317.2856797209375" height="19.602243960000003"/></g><text fill="black" stroke="none" font-family="sans-serif" font-size="11pt" font-style="normal" font-weight="normal" text-decoration="normal" x="334.3151468952812" y="1502.8889657640002" text-anchor="start" dominant-baseline="alphabetic" xml:space="preserve">Derive wallet master private key from mnemonic</text></g><g><path fill="none" stroke="black" paint-order="fill stroke markers" d=" M 314.2102812952812 1508.9204254440003 L 374.5248780952812 1508.9204254440003 L 374.5248780952812 1528.5226694040002 L 326.6250358032812 1528.5226694040002" stroke-miterlimit="10" stroke-width="1.2565541" stroke-dasharray=""/><g transform="translate(314.2102812952812,1528.5226694040002) translate(-314.2102812952812,-1528.5226694040002)"><path fill="black" stroke="none" paint-order="stroke fill markers" d=" M 326.7758222952812 1522.2398989040003 L 314.2102812952812 1528.5226694040002 L 326.7758222952812 1534.8054399040002 Z"/></g></g><g><g><rect fill="white" stroke="none" x="332.0533495152812" y="1551.1406432040003" width="152.77499856859376" height="19.602243960000003"/></g><text fill="black" stroke="none" font-family="sans-serif" font-size="11pt" font-style="normal" font-weight="normal" text-decoration="normal" x="334.3151468952812" y="1564.7114274840003" text-anchor="start" dominant-baseline="alphabetic" xml:space="preserve">Derive new private key</text></g><g><path fill="none" stroke="black" paint-order="fill stroke markers" d=" M 314.2102812952812 1570.7428871640004 L 374.5248780952812 1570.7428871640004 L 374.5248780952812 1590.3451311240003 L 326.6250358032812 1590.3451311240003" stroke-miterlimit="10" stroke-width="1.2565541" stroke-dasharray=""/><g transform="translate(314.2102812952812,1590.3451311240003) translate(-314.2102812952812,-1590.3451311240003)"><path fill="black" stroke="none" paint-order="stroke fill markers" d=" M 326.7758222952812 1584.0623606240003 L 314.2102812952812 1590.3451311240003 L 326.7758222952812 1596.6279016240003 Z"/></g></g><g><g><rect fill="white" stroke="none" x="332.0533495152812" y="1612.9631049240004" width="103.08830728441406" height="19.602243960000003"/></g><text fill="black" stroke="none" font-family="sans-serif" font-size="11pt" font-style="normal" font-weight="normal" text-decoration="normal" x="334.3151468952812" y="1626.5338892040004" text-anchor="start" dominant-baseline="alphabetic" xml:space="preserve">Derive address</text></g><g><path fill="none" stroke="black" paint-order="fill stroke markers" d=" M 314.2102812952812 1632.5653488840005 L 374.5248780952812 1632.5653488840005 L 374.5248780952812 1652.1675928440004 L 326.6250358032812 1652.1675928440004" stroke-miterlimit="10" stroke-width="1.2565541" stroke-dasharray=""/><g transform="translate(314.2102812952812,1652.1675928440004) translate(-314.2102812952812,-1652.1675928440004)"><path fill="black" stroke="none" paint-order="stroke fill markers" d=" M 326.7758222952812 1645.8848223440004 L 314.2102812952812 1652.1675928440004 L 326.7758222952812 1658.4503633440004 Z"/></g></g><g><g><rect fill="white" stroke="none" x="126.05910293442186" y="1674.7855666440005" width="104.72711648851562" height="19.602243960000003"/></g><text fill="black" stroke="none" font-family="sans-serif" font-size="11pt" font-style="normal" font-weight="normal" text-decoration="normal" x="128.32090031442186" y="1688.3563509240005" text-anchor="start" dominant-baseline="alphabetic" xml:space="preserve">Return address</text></g><g><path fill="none" stroke="black" paint-order="fill stroke markers" d=" M 314.2102812952812 1694.3878106040004 L 55.049795570078125 1694.3878106040004" stroke-miterlimit="10" stroke-width="1.2565541" stroke-dasharray="6.03145968"/><g transform="translate(42.63504106207812,1694.3878106040004) translate(-42.63504106207812,-1694.3878106040004)"><path fill="black" stroke="none" paint-order="stroke fill markers" d=" M 55.20058206207813 1688.1050401040004 L 42.63504106207812 1694.3878106040004 L 55.20058206207813 1700.6705811040003 Z"/></g></g></g><g/><g/></g></svg>
